<?xml version="1.0" encoding="UTF-8"?>
<svg version="1.1" xmlns="http://www.w3.org/2000/svg" width="1029" height="445">
<path d="M0 0 C339.57 0 679.14 0 1029 0 C1029 146.85 1029 293.7 1029 445 C689.43 445 349.86 445 0 445 C0 298.15 0 151.3 0 0 Z " fill="#FAF7EE" transform="translate(0,0)"/>
<path d="M0 0 C11.05230497 8.55796985 19.85169678 19.04893055 27 31 C29.72940436 27.64119863 32.30596664 24.21502454 34.8125 20.6875 C46.11658502 5.19364402 59.47268715 -5.56234972 78.625 -9.4921875 C95.78117273 -12.07355608 112.00439645 -8.06767077 126 2 C147.17922437 17.99365578 159.7030089 44.81203562 166 70 C179.86 70.33 193.72 70.66 208 71 C208.09050795 106.32164995 208.16208292 141.64326254 208.20426132 176.96500413 C208.20926388 181.13918589 208.2144412 185.31336742 208.21972656 189.48754883 C208.2207758 190.31852031 208.22182505 191.1494918 208.22290608 192.00564424 C208.24029063 205.44404015 208.27181752 218.8823673 208.30861118 232.32072248 C208.34607497 246.11936239 208.36824733 259.9179664 208.37635398 273.71665508 C208.3818305 282.22475943 208.39910017 290.73266943 208.43166587 299.24071393 C208.45288097 305.08244862 208.4591843 310.92408347 208.45400551 316.76585384 C208.45145448 320.13164052 208.45746079 323.49681692 208.4768219 326.86258888 C208.65898529 360.17308694 208.65898529 360.17308694 197 372 C184.8143725 383.72933748 170.15653918 383.71268346 154.32885742 383.56762695 C152.15948011 383.56621441 149.99010042 383.56701249 147.82072449 383.56983948 C141.96609653 383.57126696 136.11198663 383.54198534 130.25747848 383.50696969 C124.12629471 383.47559457 117.99509749 383.47276667 111.86384583 383.46684265 C100.26897723 383.45133695 88.67434593 383.41035274 77.07958156 383.3600952 C63.87279346 383.30409979 50.6659937 383.27668959 37.45911634 383.25161803 C10.30594629 383.19943405 -16.84701352 383.11155549 -44 383 C-42.65844322 380.24055051 -41.30129937 377.97798514 -39.3125 375.63671875 C-38.78390381 375.00564209 -38.25530762 374.37456543 -37.71069336 373.72436523 C-36.86390015 372.71611694 -36.86390015 372.71611694 -36 371.6875 C-15.13813299 346.29382011 1.47481435 316.36860444 1.3125 282.8125 C1.30831055 281.62575684 1.30412109 280.43901367 1.29980469 279.21630859 C1.1832179 270.12377931 0.3389439 261.79362598 -2 253 C-2.43505859 251.33710937 -2.43505859 251.33710937 -2.87890625 249.640625 C-11.61207923 219.09278981 -31.53970167 193.70646365 -59.03808594 177.82275391 C-86.19177782 162.79946433 -113.5753286 160.65964066 -144 163 C-144 132.31 -144 101.62 -144 70 C-133.11 70 -122.22 70 -111 70 C-110.01 66.37 -109.02 62.74 -108 59 C-106.2210012 53.90440167 -104.16112265 48.94318758 -102 44 C-101.71527832 43.34837891 -101.43055664 42.69675781 -101.13720703 42.02539062 C-91.85218806 21.22776936 -76.85034692 1.47321692 -55 -7 C-36.21856793 -12.62088532 -16.65390204 -10.81944777 0 0 Z " fill="#4BD9C2" transform="translate(231,21)"/>
<path d="M0 0 C10.28995264 8.57336816 18.58036819 18.31578493 25.44873047 29.79882812 C28.17813482 26.44002676 30.75469711 23.01385267 33.26123047 19.48632812 C44.56531549 3.99247214 57.92141762 -6.7635216 77.07373047 -10.69335938 C94.2299032 -13.27472796 110.45312692 -9.26884264 124.44873047 0.79882812 C145.62795484 16.79248391 158.15173937 43.61086374 164.44873047 68.79882812 C178.30873047 69.12882812 192.16873047 69.45882812 206.44873047 69.79882812 C206.53923842 105.12047808 206.61081339 140.44209067 206.65299179 175.76383225 C206.65799435 179.93801401 206.66317167 184.11219554 206.66845703 188.28637695 C206.66950627 189.11734844 206.67055551 189.94831992 206.67163655 190.80447236 C206.6890211 204.24286827 206.72054799 217.68119543 206.75734165 231.11955061 C206.79480544 244.91819052 206.8169778 258.71679452 206.82508445 272.5154832 C206.83056097 281.02358756 206.84783064 289.53149755 206.88039634 298.03954206 C206.90161144 303.88127675 206.90791477 309.72291159 206.90273598 315.56468197 C206.90018495 318.93046864 206.90619126 322.29564505 206.92555237 325.66141701 C207.09998043 357.55742923 207.09998043 357.55742923 197.36279297 368.86914062 C189.41475165 376.88206392 180.9267039 381.21588984 169.57922363 381.35461426 C168.49459839 381.34651733 167.40997314 381.33842041 166.29248047 381.33007812 C165.15016968 381.33390503 164.00785889 381.33773193 162.83093262 381.3416748 C160.42731845 381.34438426 158.02367431 381.33709126 155.62011719 381.3203125 C151.95944938 381.29889085 148.30074412 381.32014915 144.64013672 381.34570312 C142.29508034 381.34305968 139.95002518 381.33793436 137.60498047 381.33007812 C136.52035522 381.33817505 135.43572998 381.34627197 134.3182373 381.35461426 C122.48452077 381.20994554 113.93844483 376.41621027 105.76123047 368.04882812 C100.59546612 360.78883498 97.32165965 353.80210736 97.32568264 344.81072521 C97.32369159 343.82541921 97.32170054 342.8401132 97.31964916 341.82494944 C97.322562 340.75004813 97.32547484 339.67514681 97.32847595 338.56767273 C97.32719431 336.84617255 97.32719431 336.84617255 97.32588679 335.08989459 C97.32452487 331.90873549 97.32764865 328.72761717 97.33266485 325.54646289 C97.33698432 322.11434422 97.33552186 318.68222744 97.33476257 315.25010681 C97.33423829 309.30517311 97.33737513 303.36025038 97.34300041 297.41531944 C97.35112832 288.81995364 97.35373196 280.22459315 97.3549884 271.62922392 C97.35717689 257.68372114 97.36383147 243.73822421 97.37329102 229.79272461 C97.38247039 216.24617543 97.38954866 202.69962784 97.39379883 189.15307617 C97.39406155 188.31803103 97.39432428 187.48298588 97.39459496 186.62263634 C97.3959 182.43344957 97.39716371 178.24426279 97.39840686 174.055076 C97.40877314 139.30298818 97.42720805 104.55091118 97.44873047 69.79882812 C116.58873047 69.79882812 135.72873047 69.79882812 155.44873047 69.79882812 C150.91108231 55.63199255 150.91108231 55.63199255 145.19873047 42.04882812 C144.63303345 40.87525757 144.63303345 40.87525757 144.0559082 39.67797852 C134.96296551 21.39688883 121.77511 6.23167554 102.07373047 -0.63867188 C87.70441063 -4.62156579 73.46381705 -2.0355783 60.45654297 4.89257812 C49.70072868 11.70925004 42.24816453 21.20550695 35.44873047 31.79882812 C35.05169922 32.39373047 34.65466797 32.98863281 34.24560547 33.6015625 C31.96858706 37.12654109 31.96858706 37.12654109 31.72973633 41.18823242 C32.46119428 43.84408296 33.31967396 46.38327715 34.29638672 48.95898438 C34.65410156 49.91740234 35.01181641 50.87582031 35.38037109 51.86328125 C36.13605423 53.8666899 36.89387757 55.86929254 37.65380859 57.87109375 C38.01023437 58.82822266 38.36666016 59.78535156 38.73388672 60.77148438 C39.22707397 62.07484741 39.22707397 62.07484741 39.73022461 63.40454102 C40.44873047 65.79882813 40.44873047 65.79882813 40.44873047 69.79882812 C37.80873047 69.79882812 35.16873047 69.79882812 32.44873047 69.79882812 C32.02720703 68.58324219 31.60568359 67.36765625 31.17138672 66.11523438 C30.61815239 64.5305462 30.06475874 62.94591365 29.51123047 61.36132812 C29.2334375 60.55888672 28.95564453 59.75644531 28.66943359 58.9296875 C28.40195312 58.16591797 28.13447266 57.40214844 27.85888672 56.61523438 C27.61275635 55.90826416 27.36662598 55.20129395 27.11303711 54.47290039 C26.57405071 52.79200181 26.57405071 52.79200181 25.44873047 51.79882812 C19.73019561 68.17090664 15.10459946 84.28837224 12.48681641 101.44433594 C11.66147617 106.58608242 11.66147617 106.58608242 9.44873047 108.79882812 C4.89317491 108.24327257 4.89317491 108.24327257 3.44873047 106.79882812 C3.30016119 93.10074031 7.44909735 78.57550333 11.32373047 65.54882812 C11.56841064 64.71859131 11.81309082 63.88835449 12.06518555 63.03295898 C13.28922996 59.03698779 14.63936665 55.24860351 16.44873047 51.47851562 C20.04763789 44.07808221 20.04763789 44.07808221 19.32373047 36.04882812 C17.44815291 32.31805971 15.01871869 29.07319112 12.44873047 25.79882812 C11.46646484 24.42404297 11.46646484 24.42404297 10.46435547 23.02148438 C0.35800362 9.4697853 -12.66312973 0.38072418 -29.55126953 -2.20117188 C-43.59753097 -3.69545501 -56.97903675 -0.30433655 -68.03564453 8.58398438 C-68.86580078 9.31488281 -69.69595703 10.04578125 -70.55126953 10.79882812 C-71.40205078 11.54003906 -72.25283203 12.28125 -73.12939453 13.04492188 C-96.25495533 34.64533065 -106.25113794 69.76529023 -110.56396484 100.15258789 C-111.084134 103.69063497 -111.53270067 105.77097483 -113.55126953 108.79882812 C-118.42626953 107.92382812 -118.42626953 107.92382812 -119.55126953 106.79882812 C-120.88876549 77.86324493 -107.32749183 42.94881231 -90.55126953 19.79882812 C-89.89384766 18.88875 -89.23642578 17.97867188 -88.55908203 17.04101562 C-77.77991953 2.885248 -63.08130001 -7.82901376 -45.29736328 -10.88085938 C-29.70435539 -12.69967395 -12.69543147 -9.83026799 0 0 Z " fill="#414143" transform="translate(232.55126953125,22.201171875)"/>
<path d="M0 0 C2.46028783 2.17525448 4.82870233 4.41881568 7.1875 6.703125 C7.86039063 7.2909375 8.53328125 7.87875 9.2265625 8.484375 C25.02479611 22.83496171 34.21617388 46.38736897 35.390625 67.32421875 C35.80413181 100.99056497 18.80351815 128.2429123 -3.52734375 152.23046875 C-5.44153883 154.30172599 -7.25837611 156.41227201 -9.0625 158.578125 C-17.52474523 168.29773213 -27.69715495 176.77836423 -37.8125 184.703125 C-38.82594482 185.50145752 -38.82594482 185.50145752 -39.85986328 186.31591797 C-42.12937903 188.09914429 -44.40698204 189.87149591 -46.6875 191.640625 C-47.77671753 192.49333984 -47.77671753 192.49333984 -48.88793945 193.36328125 C-56.10286826 198.90820391 -56.10286826 198.90820391 -59.8125 199.703125 C-61.8125 198.9375 -61.8125 198.9375 -63.8125 197.453125 C-64.59238281 196.88335937 -65.37226562 196.31359375 -66.17578125 195.7265625 C-67.04589844 195.05882812 -67.91601562 194.39109375 -68.8125 193.703125 C-69.79605469 192.97351563 -70.77960938 192.24390625 -71.79296875 191.4921875 C-107.55451684 164.74151023 -144.58443921 129.54517797 -152.8125 83.703125 C-154.90528728 56.91014957 -148.02986075 32.56399362 -130.8125 11.703125 C-130.1525 11.703125 -129.4925 11.703125 -128.8125 11.703125 C-128.565 11.125625 -128.3175 10.548125 -128.0625 9.953125 C-126.62950012 7.37372521 -125.02825324 5.64190908 -122.8125 3.703125 C-122.1525 3.703125 -121.4925 3.703125 -120.8125 3.703125 C-120.8125 3.043125 -120.8125 2.383125 -120.8125 1.703125 C-87.64056423 -28.23595262 -33.97763238 -27.74839977 0 0 Z " fill="#FBB042" transform="translate(168.8125,228.296875)"/>
<path d="M0 0 C1.1293396 0.00845947 1.1293396 0.00845947 2.28149414 0.01708984 C14.27916787 0.27782466 24.06575105 4.77247783 32.9375 12.875 C44.12533017 24.76490049 47.43245177 39.47954812 46.97265625 55.26171875 C46.31363613 69.52503356 41.8810716 82.24312951 32.375 93 C20.67177578 103.30998324 10.2596343 106.4401254 -5.22216797 105.49267578 C-15.62105221 104.56872002 -22.06837462 99.49412538 -29.25 92.3125 C-29.58 112.4425 -29.91 132.5725 -30.25 153.3125 C-40.81 153.3125 -51.37 153.3125 -62.25 153.3125 C-62.25 103.1525 -62.25 52.9925 -62.25 1.3125 C-51.69 1.3125 -41.13 1.3125 -30.25 1.3125 C-29.755 7.7475 -29.755 7.7475 -29.25 14.3125 C-28.445625 13.260625 -27.64125 12.20875 -26.8125 11.125 C-19.96592272 3.12923363 -10.3099472 -0.08060944 0 0 Z " fill="#434345" transform="translate(940.25,121.6875)"/>
<path d="M0 0 C16.01130104 -0.56802842 31.3319406 4.6759234 43.2109375 15.5 C56.15754785 27.83365503 63.67595416 42.29464317 64.2734375 60.3125 C63.99145655 77.91868544 57.29957969 92.91099241 44.8984375 105.1875 C44.22167969 105.89777344 43.54492188 106.60804688 42.84765625 107.33984375 C31.17532041 118.79236159 15.83180389 122.59094585 -0.12426758 122.48632812 C-15.88051213 122.05296135 -30.29469834 115.391445 -41.33984375 104.2734375 C-49.07791826 95.93929661 -54.33554614 86.23510106 -57.1015625 75.1875 C-57.29105469 74.4346875 -57.48054688 73.681875 -57.67578125 72.90625 C-60.36904073 55.7089234 -57.12162361 39.51041042 -47.1015625 25.1875 C-37.28145263 12.13886086 -23.35681759 2.97445444 -7.1015625 0.375 C-4.73543689 0.21390209 -2.36809491 0.14315939 0 0 Z " fill="#FBB042" transform="translate(107.1015625,230.8125)"/>
<path d="M0 0 C1.20305598 0.83211372 2.39226735 1.68482552 3.5625 2.5625 C4.531875 3.284375 5.50125 4.00625 6.5 4.75 C8.5625 6.5625 8.5625 6.5625 9.5625 8.5625 C9.8925 4.6025 10.2225 0.6425 10.5625 -3.4375 C21.1225 -3.4375 31.6825 -3.4375 42.5625 -3.4375 C42.5625 30.5525 42.5625 64.5425 42.5625 99.5625 C32.0025 99.5625 21.4425 99.5625 10.5625 99.5625 C10.2325 95.6025 9.9025 91.6425 9.5625 87.5625 C7.7371875 89.2021875 7.7371875 89.2021875 5.875 90.875 C-3.12678653 98.96135061 -13.39490042 101.18544087 -25.33984375 100.84375 C-37.64207409 99.72677574 -47.51858708 93.66808212 -55.3984375 84.3125 C-65.4055221 70.81635525 -67.92382564 54.01117038 -66.4375 37.5625 C-63.61043646 22.91040726 -57.48440927 10.13852681 -45.1875 1.25 C-31.490395 -7.18440942 -14.07140981 -8.55372754 0 0 Z " fill="#FBB043" transform="translate(900.4375,298.4375)"/>
<path d="M0 0 C10.11297656 9.36297112 15.8449568 22.6394546 16.48828125 36.31640625 C16.83400527 50.35716199 14.32710331 61.49947436 6.25 73.25 C5.651875 74.136875 5.05375 75.02375 4.4375 75.9375 C-5.93196492 86.89950577 -19.51102746 93.08670529 -34.58422852 93.60400391 C-50.30117137 93.76570472 -64.75070654 89.97683264 -76.625 79.1875 C-88.0811871 66.90849283 -91.35182425 50.62477 -91.02734375 34.35546875 C-90.46426477 22.35152126 -84.54317005 9.52592476 -75.75 1.25 C-69.25798421 -4.14596118 -62.82137887 -8.2276941 -54.75 -10.75 C-54.069375 -10.97429687 -53.38875 -11.19859375 -52.6875 -11.4296875 C-34.63111679 -16.42255104 -14.53009629 -11.37976568 0 0 Z " fill="#FBB043" transform="translate(696.75,305.75)"/>
<path d="M0 0 C10.16727474 8.20383396 16.22972961 18.8267807 18.6875 31.5625 C18.82280996 33.03914347 18.92059325 34.5192977 19 36 C19.06445312 37.18851563 19.12890625 38.37703125 19.1953125 39.6015625 C19.52608141 48.75060838 18.41626476 56.39386962 15 65 C14.58427734 66.10408203 14.58427734 66.10408203 14.16015625 67.23046875 C9.55506333 77.86250355 -0.44146274 86.66325677 -10.90234375 91.28125 C-24.31513587 96.32229939 -41.8055207 97.93228602 -55.4375 92.875 C-58.3828125 91.48046875 -58.3828125 91.48046875 -61 90 C-61.82242188 89.54238281 -62.64484375 89.08476562 -63.4921875 88.61328125 C-76.11452046 80.8571339 -82.83623785 69.98126015 -87 56 C-90.34438403 39.93815562 -87.51641456 24.92749892 -79 11 C-60.54113191 -14.07152773 -24.94738118 -16.47166834 0 0 Z " fill="#424244" transform="translate(843,132)"/>
<path d="M0 0 C10.23 0 20.46 0 31 0 C31.33 14.85 31.66 29.7 32 45 C34.64 42.69 37.28 40.38 40 38 C50.40751446 32.07572254 60.6469799 30.36652051 72.515625 32.6875 C83.37813794 35.71889896 89.79926619 40.71839844 96 50 C96.556875 50.763125 97.11375 51.52625 97.6875 52.3125 C102.39623957 61.95420483 102.40545616 71.89110889 102.29296875 82.38671875 C102.28736052 83.94041022 102.28309624 85.49410707 102.28010559 87.04780579 C102.26875317 91.1002414 102.23937113 95.15234483 102.20599365 99.20465088 C102.16963093 104.08649585 102.15608577 108.96845304 102.13863373 113.8503952 C102.109726 121.23382651 102.05217316 128.61653166 102 136 C91.44 136 80.88 136 70 136 C69.98582031 131.4728125 69.97164062 126.945625 69.95703125 122.28125 C69.93695718 119.4009649 69.91542418 116.52083695 69.88867188 113.640625 C69.84641304 109.07610995 69.80935272 104.51199359 69.80444336 99.94726562 C69.80014232 96.26400759 69.77153296 92.58164448 69.72656822 88.89866638 C69.71365031 87.49862393 69.70926523 86.09847407 69.71384621 84.69837952 C69.73910259 74.62883488 68.60617463 68.72428167 61.5625 61.5 C55.35428113 58.88601311 48.1708763 58.81533093 41.67578125 60.66015625 C37.00126587 63.00248392 35.11274247 66.44947776 33 71 C31.92365247 74.36470538 31.84561372 77.53185131 31.79467773 81.05371094 C31.77473251 82.27467468 31.75478729 83.49563843 31.73423767 84.75360107 C31.70916893 86.72408417 31.70916893 86.72408417 31.68359375 88.734375 C31.66301081 90.09629936 31.64201399 91.45821752 31.62062073 92.82012939 C31.56553835 96.39734872 31.51606836 99.97462438 31.46777344 103.55194092 C31.41745711 107.20525085 31.36187528 110.85848042 31.30664062 114.51171875 C31.19873186 121.67441727 31.0996016 128.83716184 31 136 C20.77 136 10.54 136 0 136 C0 91.12 0 46.24 0 0 Z " fill="#424244" transform="translate(638,90)"/>
<path d="M0 0 C6.26091001 6.12177867 10.24294428 13.08990746 11.8125 21.75 C11.8125 23.73 11.8125 25.71 11.8125 27.75 C0.5925 27.75 -10.6275 27.75 -22.1875 27.75 C-23.5075 24.78 -24.8275 21.81 -26.1875 18.75 C-30.63688039 15.07926118 -35.82333778 15.17765231 -41.39453125 15.34375 C-44.41627656 15.59501587 -44.41627656 15.59501587 -47.4375 17.75 C-49.59121432 21.44208169 -50.26748911 24.63114496 -49.1875 28.75 C-46.45277749 33.97083389 -43.40494481 36.14160386 -38.0625 38.25 C-37.36745361 38.54060303 -36.67240723 38.83120605 -35.95629883 39.13061523 C-29.93420266 41.5913071 -23.76814047 43.56565291 -17.57666016 45.54858398 C-11.34473403 47.58984248 -5.70914746 50.17716929 -0.1875 53.75 C0.40160156 54.12511719 0.99070312 54.50023437 1.59765625 54.88671875 C6.89368117 58.74699267 12.05203711 66.55337146 13.234375 73.078125 C14.54584171 84.75642379 12.78005661 95.52400855 5.95703125 105.27734375 C-1.34880264 113.70101015 -11.28346454 118.83897318 -22.1875 120.75 C-25.74809815 120.96298441 -29.30860169 120.93511125 -32.875 120.9375 C-34.28942383 120.95586914 -34.28942383 120.95586914 -35.73242188 120.97460938 C-51.34466639 121.00679957 -63.32435623 116.64924563 -74.90625 106.19921875 C-81.64686571 99.26945311 -84.1875 90.16640727 -84.1875 80.75 C-72.9675 80.75 -61.7475 80.75 -50.1875 80.75 C-49.1975 83.72 -48.2075 86.69 -47.1875 89.75 C-43.23736536 93.70013464 -39.87662758 94.89858751 -34.375 95 C-29.93575378 94.95463544 -26.9417968 94.28415034 -23.1875 91.75 C-20.35525269 87.50162904 -20.42835319 83.73639591 -21.1875 78.75 C-27.14788534 70.18194607 -39.72954654 67.80001181 -49.16796875 64.83789062 C-61.94648472 60.7218121 -73.84260913 55.26244787 -81.3125 43.5 C-85.24212093 34.51398512 -84.79671114 22.23491685 -82.078125 12.96875 C-80.67082575 9.97256449 -79.14814608 7.41244334 -77.1875 4.75 C-76.46240234 3.74646484 -76.46240234 3.74646484 -75.72265625 2.72265625 C-69.03233084 -5.0571878 -57.49701884 -9.84977043 -47.5078125 -11.03515625 C-29.62450908 -12.19231118 -15.0825445 -10.646502 0 0 Z " fill="#424244" transform="translate(605.1875,106.25)"/>
<path d="M0 0 C18.62510389 14.64395314 30.00134572 36.61225249 36.61328125 59.0546875 C36.61328125 60.0446875 36.61328125 61.0346875 36.61328125 62.0546875 C-1.33671875 62.0546875 -39.28671875 62.0546875 -78.38671875 62.0546875 C-80.69671875 55.4546875 -83.00671875 48.8546875 -85.38671875 42.0546875 C-86.87171875 38.5896875 -86.87171875 38.5896875 -88.38671875 35.0546875 C-87.89305036 24.06233803 -75.2022246 11.31289354 -67.609375 3.96875 C-47.95996701 -12.95253281 -21.38358248 -14.76259176 0 0 Z " fill="#FAF7EE" transform="translate(351.38671875,28.9453125)"/>
<path d="M0 0 C8.40985347 6.537471 15.10567447 14.10680709 21 23 C21.69222656 23.95648438 22.38445312 24.91296875 23.09765625 25.8984375 C25.065198 29.01475628 26.27839176 31.37867766 27 35 C26.07156036 39.05375054 24.7675196 42.15148463 22.9140625 45.87109375 C20.37359012 51.3512556 18.77638987 57.22673291 17 63 C-20.95 63 -58.9 63 -98 63 C-94.96673928 41.76717495 -83.10391817 21.90662461 -68 7 C-67.22527344 6.2265625 -66.45054687 5.453125 -65.65234375 4.65625 C-47.42229465 -12.57709448 -20.79763315 -13.21769162 0 0 Z " fill="#FAF7EE" transform="translate(227,28)"/>
<path d="M0 0 C8.18403382 6.12174413 13.03797804 16.39870038 16.16015625 25.8515625 C16.16015625 26.8415625 16.16015625 27.8315625 16.16015625 28.8515625 C4.94015625 28.8515625 -6.27984375 28.8515625 -17.83984375 28.8515625 C-19.15984375 26.5415625 -20.47984375 24.2315625 -21.83984375 21.8515625 C-25.33264743 18.92377118 -29.43878581 17.62215712 -33.96484375 17.4140625 C-39.55999992 18.04577368 -42.51055233 19.55318483 -46.52734375 23.4765625 C-52.22875026 30.99874076 -52.66973261 39.71171989 -51.83984375 48.8515625 C-50.74982618 54.3832163 -49.22683594 58.36403503 -45.83984375 62.8515625 C-45.83984375 63.5115625 -45.83984375 64.1715625 -45.83984375 64.8515625 C-39.57543129 67.2877229 -33.59643175 69.48239267 -26.92578125 67.1953125 C-21.61330415 64.57298338 -21.22375873 62.77341371 -17.83984375 56.8515625 C-6.61984375 56.8515625 4.60015625 56.8515625 16.16015625 56.8515625 C13.72800451 65.76945223 12.0382316 70.67176795 7.16015625 77.8515625 C6.58265625 78.7384375 6.00515625 79.6253125 5.41015625 80.5390625 C-3.94304993 90.15207996 -16.7119276 95.86181241 -30.07006836 96.09326172 C-45.7109081 96.1489289 -59.19651223 92.8463743 -70.9921875 81.8984375 C-76.43263342 75.87138958 -80.65505317 68.68295971 -82.83984375 60.8515625 C-83.04351563 60.16449219 -83.2471875 59.47742188 -83.45703125 58.76953125 C-87.21084244 43.67715337 -85.50815182 27.94867267 -78.453125 14.13671875 C-70.79887411 1.86894677 -59.99074174 -5.69382399 -46.01464844 -9.0168457 C-29.28636343 -12.55521946 -14.36669228 -8.96774422 0 0 Z " fill="#FBB043" transform="translate(807.83984375,303.1484375)"/>
<path d="M0 0 C2.04119788 1.61594832 4.04072937 3.2856382 6 5 C6 5.66 6 6.32 6 7 C6.66 7 7.32 7 8 7 C9.41706502 8.54888502 10.75809496 10.16761534 12.0625 11.8125 C15.59994197 16.25801296 15.59994197 16.25801296 19.2421875 20.6171875 C23.82010757 25.97710104 27.80520541 31.54833311 31.5625 37.5 C32.00456787 38.19504639 32.44663574 38.89009277 32.90209961 39.60620117 C36 44.62510805 36 44.62510805 36 48 C36.66 48 37.32 48 38 48 C40.69254351 53.32063784 43.35691786 58.65461975 46 64 C46.34691895 64.69963867 46.69383789 65.39927734 47.05126953 66.12011719 C52.04124213 76.24407315 56.27210064 86.51112005 59.99755859 97.16479492 C60.77038242 99.35057257 61.5637484 101.52909448 62.36572266 103.7043457 C66.27505166 114.3847363 69.3543941 125.16156422 72.125 136.1875 C72.34033386 137.03463562 72.55566772 137.88177124 72.77752686 138.75457764 C81 171.15064861 81 171.15064861 81 183 C49.98 183 18.96 183 -13 183 C-10.9460258 178.8920516 -8.40120114 175.69281659 -5.5 172.1875 C15.04187266 146.79341042 31.47382159 117.16336697 31.3125 83.8125 C31.30831055 82.62575684 31.30412109 81.43901367 31.29980469 80.21630859 C31.1832179 71.12377931 30.3389439 62.79362598 28 54 C27.70996094 52.89140625 27.41992188 51.7828125 27.12109375 50.640625 C22.03934485 32.86513512 13.66696189 17.99293374 1.65234375 4.109375 C0 2 0 2 0 0 Z " fill="#30CAAB" transform="translate(201,220)"/>
<path d="M0 0 C16.01130104 -0.56802842 31.3319406 4.6759234 43.2109375 15.5 C56.15754785 27.83365503 63.67595416 42.29464317 64.2734375 60.3125 C63.99145655 77.91868544 57.29957969 92.91099241 44.8984375 105.1875 C44.22167969 105.89777344 43.54492188 106.60804688 42.84765625 107.33984375 C31.17532041 118.79236159 15.83180389 122.59094585 -0.12426758 122.48632812 C-15.88051213 122.05296135 -30.29469834 115.391445 -41.33984375 104.2734375 C-49.07791826 95.93929661 -54.33554614 86.23510106 -57.1015625 75.1875 C-57.29105469 74.4346875 -57.48054688 73.681875 -57.67578125 72.90625 C-60.36904073 55.7089234 -57.12162361 39.51041042 -47.1015625 25.1875 C-37.28145263 12.13886086 -23.35681759 2.97445444 -7.1015625 0.375 C-4.73543689 0.21390209 -2.36809491 0.14315939 0 0 Z M-29.1015625 29.1875 C-29.68292969 29.7546875 -30.26429687 30.321875 -30.86328125 30.90625 C-39.78418759 40.43386785 -42.73943271 52.35491596 -42.41015625 65.11328125 C-41.83619914 75.31828621 -37.47004051 83.3962769 -31.1015625 91.1875 C-30.57820313 91.83589844 -30.05484375 92.48429687 -29.515625 93.15234375 C-22.04760277 101.47645633 -11.24116766 105.45171648 -0.3359375 106.4375 C11.44364375 106.9308856 21.65451739 103.40931259 30.8984375 96.1875 C31.73246094 95.57132812 32.56648438 94.95515625 33.42578125 94.3203125 C37.66328334 90.66521591 40.15778783 86.01286186 42.8984375 81.1875 C43.33929688 80.42566406 43.78015625 79.66382813 44.234375 78.87890625 C49.0209759 69.08504554 48.12142315 56.39873927 45.3359375 46.125 C43.217338 40.19441338 40.15032767 35.78170337 35.8984375 31.1875 C35.351875 30.55070312 34.8053125 29.91390625 34.2421875 29.2578125 C26.30772748 20.53739182 14.32506576 16.33079752 2.7109375 15.6875 C-9.51701298 16.10794529 -20.45774687 20.59326649 -29.1015625 29.1875 Z " fill="#FAF6EB" transform="translate(107.1015625,230.8125)"/>
<path d="M0 0 C10.23 0 20.46 0 31 0 C31 34.65 31 69.3 31 105 C44.53 105 58.06 105 72 105 C72 112.92 72 120.84 72 129 C48.24 129 24.48 129 0 129 C0 86.43 0 43.86 0 0 Z " fill="#FBB042" transform="translate(525,268)"/>
<path d="M0 0 C10.56 0 21.12 0 32 0 C32 45.21 32 90.42 32 137 C21.44 137 10.88 137 0 137 C0 91.79 0 46.58 0 0 Z " fill="#FCB145" transform="translate(965,261)"/>
<path d="M0 0 C4.72917922 7.09376883 2.23518999 20.58295049 0.68725586 28.64086914 C-4.79231487 52.86402763 -20.09471239 73.67418873 -36.71484375 91.52734375 C-38.62903883 93.59860099 -40.44587611 95.70914701 -42.25 97.875 C-50.71224523 107.59460713 -60.88465495 116.07523923 -71 124 C-71.67562988 124.53222168 -72.35125977 125.06444336 -73.04736328 125.61279297 C-75.31687903 127.39601929 -77.59448204 129.16837091 -79.875 130.9375 C-80.60114502 131.50597656 -81.32729004 132.07445312 -82.07543945 132.66015625 C-89.29036826 138.20507891 -89.29036826 138.20507891 -93 139 C-95 138.234375 -95 138.234375 -97 136.75 C-98.16982422 135.89535156 -98.16982422 135.89535156 -99.36328125 135.0234375 C-100.23339844 134.35570312 -101.10351562 133.68796875 -102 133 C-102.98355469 132.27039063 -103.96710938 131.54078125 -104.98046875 130.7890625 C-112.73790348 124.98416307 -120.11632605 118.76102316 -127.40917969 112.38671875 C-128.89311666 111.09317025 -130.38757755 109.81172221 -131.8828125 108.53125 C-132.70523438 107.8196875 -133.52765625 107.108125 -134.375 106.375 C-135.08398438 105.76398438 -135.79296875 105.15296875 -136.5234375 104.5234375 C-138 103 -138 103 -138 101 C-137.28199219 101.144375 -136.56398438 101.28875 -135.82421875 101.4375 C-106.49116368 106.69772407 -76.51957673 100.21239874 -51.81201172 83.52197266 C-27.64085842 66.49965969 -7.09420745 42.70248764 -1.60205078 12.8359375 C-0.92094583 8.57162825 -0.41384119 4.29900701 0 0 Z " fill="#F97A14" transform="translate(202,289)"/>
<path d="M0 0 C6.58207513 3.86626189 10.26664706 9.48501701 12.7265625 16.6015625 C14.01933877 25.19187961 12.15414212 33.14297338 7.4765625 40.4140625 C3.98055258 44.96626877 -0.65922768 47.45733307 -6.2734375 48.6015625 C-12.81180864 49.35126295 -17.87236594 48.45295952 -23.2734375 44.6015625 C-29.18411269 39.43975113 -31.81951248 33.38038421 -32.5546875 25.640625 C-32.79828307 17.58167156 -31.60301104 11.96650205 -27.0234375 5.3515625 C-19.60224812 -2.06962688 -9.99628483 -4.27048922 0 0 Z " fill="#F8F5EC" transform="translate(942.2734375,151.3984375)"/>
<path d="M0 0 C5.48114693 3.1898478 9.97289862 8.32673585 12.21484375 14.30078125 C14.50864152 24.67026373 12.24466808 33.37713957 7 42.3125 C1.07755306 47.75474854 -5.52827973 49.17882301 -13.4453125 48.88671875 C-19.30809129 47.96816349 -23.27188075 44.80150636 -27.1875 40.5 C-30.95275791 35.07359889 -31.65571266 29.9926556 -31.625 23.5 C-31.64111328 22.82259766 -31.65722656 22.14519531 -31.67382812 21.44726562 C-31.68009577 14.91011559 -29.79683702 10.60039108 -26.125 5.25 C-18.96774441 -1.90725559 -9.53471408 -4.21131731 0 0 Z " fill="#FAF7EC" transform="translate(898.3125,322.5625)"/>
<path d="M0 0 C3.5 1.6875 3.5 1.6875 6 4 C6.86625 4.70125 7.7325 5.4025 8.625 6.125 C14.0090051 12.64247986 15.69862344 19.67141255 15.38671875 28.0390625 C14.41718553 35.46235726 11.40992125 41.84170299 6 47 C-0.18192273 50.8637017 -6.86685913 50.81916069 -14 50 C-20.19564025 47.12345274 -24.37022651 42.18610859 -26.8125 35.875 C-29.34022089 27.2168296 -28.7144696 18.74044459 -25.33984375 10.41796875 C-19.82504086 0.46559853 -10.54100319 -1.06461503 0 0 Z " fill="#FAF6EC" transform="translate(666,321)"/>
<path d="M0 0 C5.64758624 4.03909649 9.45970883 9.50413577 10.8515625 16.32421875 C11.79809892 25.94733897 10.77578956 34.0681516 4.6015625 41.69921875 C0.00904312 46.51225577 -4.45858428 48.42731102 -11.0859375 48.76171875 C-16.16498382 48.56133149 -20.1555924 47.55611478 -24.1484375 44.32421875 C-29.86568933 37.42365772 -31.3608236 31.88667393 -31.4609375 23.13671875 C-31.48994141 22.31107422 -31.51894531 21.48542969 -31.54882812 20.63476562 C-31.61979285 13.70751691 -29.95878825 8.58095631 -25.40234375 3.30078125 C-17.47812254 -3.03127542 -9.28943409 -5.2738819 0 0 Z " fill="#F8F5EC" transform="translate(819.1484375,151.67578125)"/>
<path d="M0 0 C0.33 0 0.66 0 1 0 C1.33 33 1.66 66 2 100 C13.22 100.33 24.44 100.66 36 101 C36.99 101.495 36.99 101.495 38 102 C38 102.99 38 103.98 38 105 C25.46 105 12.92 105 0 105 C0 70.35 0 35.7 0 0 Z " fill="#FAF1DC" transform="translate(556,268)"/>
<path d="M0 0 C0.66 0 1.32 0 2 0 C2 3.63 2 7.26 2 11 C3.65 11.33 5.3 11.66 7 12 C8.27253436 8.35206816 9.32829194 4.8063457 10 1 C13.33098122 3.74805951 14.86534577 5.16215145 15.5625 9.5 C14.91877781 13.50538252 13.84054174 15.15945826 11 18 C7.77121481 19.6143926 4.49096318 19.5818272 1 19 C-2.64184981 16.44295652 -3.77792202 14.77727291 -5 10.5 C-5 5.62538297 -3.36424612 3.36424612 0 0 Z " fill="#F3F6EC" transform="translate(235,118)"/>
<path d="M0 0 C4.765625 1.7265625 4.765625 1.7265625 6.875 4.1875 C8.37482524 7.9370631 8.05590483 10.12834896 7 14 C3.93274337 17.75986296 2.02509929 18.88236566 -2.8125 19.4375 C-6.48419817 19.37730823 -6.96171887 19.03190094 -10 16.5 C-12.69795262 12.67562945 -12.52332485 9.56040227 -12 5 C-11.34 4.01 -10.68 3.02 -10 2 C-9.34 2 -8.68 2 -8 2 C-7.34 4.97 -6.68 7.94 -6 11 C-4.34385343 11.38218767 -2.67542976 11.71395102 -1 12 C0.28612676 10.94021067 0.28612676 10.94021067 0.09765625 8.49609375 C0.08605469 7.48675781 0.07445312 6.47742188 0.0625 5.4375 C0.05347656 4.42558594 0.04445313 3.41367188 0.03515625 2.37109375 C0.02355469 1.58863281 0.01195312 0.80617188 0 0 Z " fill="#F2F0E7" transform="translate(403,118)"/>
<path d="M0 0 C0 3.63 0 7.26 0 11 C1.65 11.33 3.3 11.66 5 12 C5.99 8.7 6.98 5.4 8 2 C8.66 2 9.32 2 10 2 C12.45665197 5.68497796 12.70086491 8.71971786 12 13 C10.20636089 15.8100346 8.98119065 17.50940468 6 19 C-0.94263424 19.68288206 -0.94263424 19.68288206 -5 17.0625 C-7.3330608 13.49000064 -7.72407067 11.3544791 -7.5 7.16015625 C-6.62997103 3.4013592 -4.06394721 0 0 0 Z " fill="#F5F5EC" transform="translate(114,118)"/>
<path d="M0 0 C2.34054554 2.34054554 2.99321065 4.21475064 4.125 7.3125 C4.47820312 8.25738281 4.83140625 9.20226562 5.1953125 10.17578125 C5.98399678 12.94383335 6.15620348 15.14147629 6 18 C4.35425434 18.02688151 2.70838587 18.04634123 1.0625 18.0625 C0.14597656 18.07410156 -0.77054687 18.08570312 -1.71484375 18.09765625 C-4 18 -4 18 -5 17 C-4.6571996 10.60105923 -2.84078072 5.70798731 0 0 Z " fill="#EDEAE2" transform="translate(258,73)"/>
<path d="M0 0 C4.7962671 7.19440064 2.15082321 19.64648705 0.625 27.875 C0.43611206 28.90016724 0.43611206 28.90016724 0.2434082 29.94604492 C-0.73295318 34.73295318 -0.73295318 34.73295318 -3 37 C-3.12375 36.195625 -3.2475 35.39125 -3.375 34.5625 C-3.58125 33.716875 -3.7875 32.87125 -4 32 C-4.66 31.67 -5.32 31.34 -6 31 C-5.33147575 26.45960611 -4.25529882 22.16200616 -3 17.75 C-1.36382415 11.85203811 -0.28800835 6.12017736 0 0 Z " fill="#F87F1B" transform="translate(202,289)"/>
<path d="M0 0 C0.33 0.66 0.66 1.32 1 2 C1.66 2 2.32 2 3 2 C2.88601335 3.62580966 2.75844341 5.25067157 2.625 6.875 C2.55539063 7.77992187 2.48578125 8.68484375 2.4140625 9.6171875 C2 12 2 12 0 14 C-4.55555556 13.44444444 -4.55555556 13.44444444 -6 12 C-5.91015699 10.14227838 -5.75388139 8.28752015 -5.5625 6.4375 C-5.46066406 5.42558594 -5.35882813 4.41367188 -5.25390625 3.37109375 C-5.17011719 2.58863281 -5.08632812 1.80617188 -5 1 C-4.67 2.32 -4.34 3.64 -4 5 C-2.7018576 3.8509288 -2.7018576 3.8509288 -2 1 C-1.34 0.67 -0.68 0.34 0 0 Z " fill="#434445" transform="translate(242,117)"/>
<path d="M0 0 C0 0.66 0 1.32 0 2 C-0.99 2.66 -1.98 3.32 -3 4 C-2.34 4.66 -1.68 5.32 -1 6 C-2.65 6.33 -4.3 6.66 -6 7 C-6 6.34 -6 5.68 -6 5 C-7.65 5.33 -9.3 5.66 -11 6 C-11.33 5.34 -11.66 4.68 -12 4 C-12.66 3.67 -13.32 3.34 -14 3 C-8.99067246 -0.00559652 -5.67276511 -0.29341888 0 0 Z " fill="#FBF7ED" transform="translate(778,320)"/>
<path d="M0 0 C2.52775351 3.79163027 2.22443035 6.80874031 2.125 11.1875 C2.11597656 11.93708984 2.10695312 12.68667969 2.09765625 13.45898438 C2.07412578 15.30612654 2.03825561 17.15310412 2 19 C0.68 19.33 -0.64 19.66 -2 20 C-1.34 13.4 -0.68 6.8 0 0 Z " fill="#F88F36" transform="translate(202,289)"/>
<path d="M0 0 C0.33 1.32 0.66 2.64 1 4 C1.66 4 2.32 4 3 4 C5 9.625 5 9.625 5 13 C0.125 12.125 0.125 12.125 -1 11 C-0.91015699 9.14227838 -0.75388139 7.28752015 -0.5625 5.4375 C-0.46066406 4.42558594 -0.35882813 3.41367188 -0.25390625 2.37109375 C-0.17011719 1.58863281 -0.08632812 0.80617188 0 0 Z " fill="#545354" transform="translate(237,118)"/>
<path d="M0 0 C-0.99 0.495 -0.99 0.495 -2 1 C-1.01 1.66 -0.02 2.32 1 3 C2.1875 5.125 2.1875 5.125 3 7 C1.20620902 6.55005243 -0.58498928 6.08975857 -2.375 5.625 C-3.37273437 5.36976563 -4.37046875 5.11453125 -5.3984375 4.8515625 C-8 4 -8 4 -10 2 C-6.5980513 -0.09350689 -3.94727588 -0.17942163 0 0 Z " fill="#FBF2E0" transform="translate(146,209)"/>
<path d="M0 0 C0.33 0 0.66 0 1 0 C1.02578125 0.82242187 1.0515625 1.64484375 1.078125 2.4921875 C1.46339355 10.07497296 2.68140335 16.16214736 6 23 C4 23 4 23 1.3125 20.5 C-2.84060934 14.65893102 -0.81137925 6.69187046 0 0 Z " fill="#FABC5E" transform="translate(866,341)"/>
<path d="M0 0 C0.103125 0.639375 0.20625 1.27875 0.3125 1.9375 C0.539375 2.618125 0.76625 3.29875 1 4 C1.99 4.33 2.98 4.66 4 5 C4.6875 7.0625 4.6875 7.0625 5 9 C4.01 9.66 3.02 10.32 2 11 C1.34 10.34 0.68 9.68 0 9 C-0.99 8.34 -1.98 7.68 -3 7 C-2.34 6.34 -1.68 5.68 -1 5 C-0.35232207 2.42938689 -0.35232207 2.42938689 0 0 Z " fill="#EEEEE6" transform="translate(244,124)"/>
<path d="M0 0 C0.33 0.66 0.66 1.32 1 2 C1.99 1.67 2.98 1.34 4 1 C4.33 1.99 4.66 2.98 5 4 C4.01 5.485 4.01 5.485 3 7 C2.34 7 1.68 7 1 7 C1 6.34 1 5.68 1 5 C0.0409375 4.566875 0.0409375 4.566875 -0.9375 4.125 C-3 3 -3 3 -4 1 C-2 0 -2 0 0 0 Z " fill="#FAB651" transform="translate(675,323)"/>
<path d="M0 0 C-0.598125 0.268125 -1.19625 0.53625 -1.8125 0.8125 C-4.04383612 1.85257915 -4.04383612 1.85257915 -5.375 3.625 C-7.80395238 5.6802674 -9.93373089 5.20441794 -13 5 C-9.25316241 0.83684713 -5.67827303 -2.10306409 0 0 Z " fill="#FBF1DD" transform="translate(887,322)"/>
<path d="M0 0 C0.66 0.33 1.32 0.66 2 1 C1.67 3.31 1.34 5.62 1 8 C-0.65 8.66 -2.3 9.32 -4 10 C-2.8905928 6.51329166 -1.73662334 3.22515763 0 0 Z " fill="#44CEB1" transform="translate(222,350)"/>
<path d="M0 0 C0.66 0 1.32 0 2 0 C0.25 5.75 0.25 5.75 -2 8 C-2.99 8 -3.98 8 -5 8 C-5 8.66 -5 9.32 -5 10 C-5.66 9.67 -6.32 9.34 -7 9 C-5.88266271 7.49428343 -4.75589965 5.99555708 -3.625 4.5 C-2.99851562 3.6646875 -2.37203125 2.829375 -1.7265625 1.96875 C-1.15679688 1.3190625 -0.58703125 0.669375 0 0 Z " fill="#F9B551" transform="translate(621,307)"/>
<path d="M0 0 C4.455 0.99 4.455 0.99 9 2 C8.01 2.495 8.01 2.495 7 3 C6.67 3.99 6.34 4.98 6 6 C3.96166576 4.7260411 1.96147874 3.38938077 0 2 C0 1.34 0 0.68 0 0 Z " fill="#F78220" transform="translate(64,390)"/>
<path d="M0 0 C0.66 0 1.32 0 2 0 C4.29013653 3.4352048 4.17842973 4.985331 4 9 C3.67 8.01 3.34 7.02 3 6 C1.68 6 0.36 6 -1 6 C-0.67 4.02 -0.34 2.04 0 0 Z " fill="#EEEFE9" transform="translate(122,120)"/>
<path d="M0 0 C4.875 4.75 4.875 4.75 6 7 C3.83125748 6.49396008 2.00032373 6.00016187 0 5 C-0.33 5.66 -0.66 6.32 -1 7 C-1.66 7 -2.32 7 -3 7 C-1.125 2.25 -1.125 2.25 0 0 Z " fill="#FAB44F" transform="translate(61,329)"/>
<path d="M0 0 C0.66 0 1.32 0 2 0 C2.66 1.32 3.32 2.64 4 4 C3 5 3 5 -0.5625 5.0625 C-1.696875 5.041875 -2.83125 5.02125 -4 5 C-2.71937515 3.2925002 -1.38232443 1.62626404 0 0 Z " fill="#FAF1DE" transform="translate(697,384)"/>
<path d="M0 0 C3.63 0 7.26 0 11 0 C11 0.99 11 1.98 11 3 C7.7 3 4.4 3 1 3 C0.67 2.01 0.34 1.02 0 0 Z " fill="#FCF8EC" transform="translate(253,88)"/>
<path d="M0 0 C0.66 1.32 1.32 2.64 2 4 C-0.96687001 5.64826111 -3.65626525 6.44271087 -7 7 C-4.66666667 4.66666667 -2.33333333 2.33333333 0 0 Z " fill="#FBEFDD" transform="translate(145,400)"/>
<path d="M0 0 C0 0.33 0 0.66 0 1 C-1.60875 1.12375 -1.60875 1.12375 -3.25 1.25 C-7.2738451 2.05476902 -8.48169253 2.87729874 -11 6 C-11.33 5.34 -11.66 4.68 -12 4 C-12.66 3.67 -13.32 3.34 -14 3 C-8.99067246 -0.00559652 -5.67276511 -0.29341888 0 0 Z " fill="#FBE6C1" transform="translate(778,320)"/>
<path d="M0 0 C4.875 4.75 4.875 4.75 6 7 C4.68 7 3.36 7 2 7 C2 6.01 2 5.02 2 4 C-0.97 3.505 -0.97 3.505 -4 3 C-3 1 -3 1 0 0 Z " fill="#FBB54F" transform="translate(698,308)"/>
<path d="M0 0 C0.33 0.99 0.66 1.98 1 3 C0.01 4.485 0.01 4.485 -1 6 C-3.625 6.1875 -3.625 6.1875 -6 6 C-2.25 1.125 -2.25 1.125 0 0 Z " fill="#FBEDDB" transform="translate(152,394)"/>
<path d="M0 0 C0.66 0 1.32 0 2 0 C2.125 2.875 2.125 2.875 2 6 C1.34 6.66 0.68 7.32 0 8 C-0.38063221 5.6739143 -0.71269945 3.33944736 -1 1 C-0.67 0.67 -0.34 0.34 0 0 Z " fill="#FAF0DA" transform="translate(605,352)"/>
<path d="M0 0 C0 0.66 0 1.32 0 2 C-0.66 2.66 -1.32 3.32 -2 4 C-2.33 4.66 -2.66 5.32 -3 6 C-4.32 5.34 -5.64 4.68 -7 4 C-2.25 0 -2.25 0 0 0 Z " fill="#FBF2DF" transform="translate(651,323)"/>
<path d="M0 0 C0.33 0 0.66 0 1 0 C1.125 3.375 1.125 3.375 1 7 C0.34 7.66 -0.32 8.32 -1 9 C-1.99 8.34 -2.98 7.68 -4 7 C-2.68 4.69 -1.36 2.38 0 0 Z " fill="#FAEED7" transform="translate(150,310)"/>
<path d="M0 0 C0.66 0.99 1.32 1.98 2 3 C1.1875 4.9375 1.1875 4.9375 0 7 C-0.99 7.33 -1.98 7.66 -3 8 C-1.125 2.25 -1.125 2.25 0 0 Z " fill="#FAB54E" transform="translate(28,254)"/>
<path d="M0 0 C-0.33 2.31 -0.66 4.62 -1 7 C-1.66 6.01 -2.32 5.02 -3 4 C-3.99 4 -4.98 4 -6 4 C-2.25 0 -2.25 0 0 0 Z " fill="#E7F2E8" transform="translate(237,118)"/>
<path d="M0 0 C2.625 0.9375 2.625 0.9375 5 2 C5 2.33 5 2.66 5 3 C0.545 3.495 0.545 3.495 -4 4 C-3.34 3.67 -2.68 3.34 -2 3 C-2 2.34 -2 1.68 -2 1 C-1.34 0.67 -0.68 0.34 0 0 Z " fill="#FBBC5C" transform="translate(784,395)"/>
<path d="M0 0 C0.33 0.66 0.66 1.32 1 2 C1.66 2 2.32 2 3 2 C2.67 2.99 2.34 3.98 2 5 C1.34 5 0.68 5 0 5 C-0.66 6.32 -1.32 7.64 -2 9 C-1.51421457 5.87709365 -1.0013988 3.00419641 0 0 Z " fill="#FAB754" transform="translate(610,323)"/>
<path d="M0 0 C4 6 4 6 3.625 8.1875 C3.41875 8.785625 3.2125 9.38375 3 10 C1.5 8.9375 1.5 8.9375 0 7 C-0.1875 3.3125 -0.1875 3.3125 0 0 Z " fill="#FBF8EE" transform="translate(245,121)"/>
<path d="M0 0 C0.99 0 1.98 0 3 0 C3.66 1.32 4.32 2.64 5 4 C4.34 4.66 3.68 5.32 3 6 C1.5 4.6875 1.5 4.6875 0 3 C0 2.01 0 1.02 0 0 Z " fill="#F88120" transform="translate(74,398)"/>
<path d="M0 0 C1.43088528 2.86177057 0.59991697 4.93375773 0 8 C-1.32 6.68 -2.64 5.36 -4 4 C-2.68 2.68 -1.36 1.36 0 0 Z " fill="#FAECDA" transform="translate(174,370)"/>
<path d="M0 0 C0.598125 0.20625 1.19625 0.4125 1.8125 0.625 C0.55708443 3.13583114 -0.68813488 3.49625446 -3.1875 4.625 C-3.8475 3.635 -4.5075 2.645 -5.1875 1.625 C-2.1875 -0.375 -2.1875 -0.375 0 0 Z " fill="#FAF2DE" transform="translate(181.1875,233.375)"/>
</svg>
